<?xml version="1.0" encoding="UTF-8"?><svg id="Layer_2" xmlns="http://www.w3.org/2000/svg" viewBox="0 0 476.1 119.87"><defs><style>.cls-1{fill:#fff;}</style></defs><g id="Layer_1-2"><g><path class="cls-1" d="M176.9,105.44h-8.3c-2.89,0-4.91-.92-6.07-2.77-1.16-1.84-1.74-4.41-1.74-7.7v-26.1h15.03c.8,0,1.48-.28,2.04-.84,.56-.56,.84-1.24,.84-2.04v-6.97c0-.8-.28-1.48-.84-2.04-.56-.56-1.24-.84-2.04-.84h-15.03v-19.96c0-.8-.28-1.48-.84-2.04-.56-.56-1.24-.84-2.05-.84h-9.74c-.88,0-1.58,.28-2.1,.84-.52,.56-.78,1.24-.78,2.04v19.96h-9.5c-.8,0-1.48,.28-2.04,.84-.56,.56-.84,1.24-.84,2.04v6.97c0,.8,.28,1.48,.84,2.04,.56,.56,1.24,.84,2.04,.84h9.5v27.3c0,4.97,.8,9.12,2.4,12.45,1.6,3.33,4.05,5.83,7.34,7.52,3.29,1.68,7.33,2.52,12.15,2.52h9.74c.8,0,1.48-.28,2.05-.84,.56-.56,.84-1.24,.84-2.05v-7.45c0-.8-.28-1.48-.84-2.05-.56-.56-1.24-.84-2.05-.84Z"/><path class="cls-1" d="M233.78,58.96c-4.41-2.68-9.86-4.03-16.35-4.03-5.85,0-10.94,1.18-15.27,3.55-4.33,2.37-7.72,5.75-10.16,10.16-2.45,4.41-3.83,9.62-4.15,15.63-.08,.72-.12,1.7-.12,2.95s.04,2.27,.12,3.07c.4,9.46,3.21,16.76,8.42,21.89,5.21,5.13,12.27,7.7,21.17,7.7,4.49,0,8.48-.58,11.97-1.75,3.49-1.16,6.39-2.62,8.72-4.39,2.32-1.76,4.11-3.57,5.35-5.41,1.24-1.84,1.9-3.41,1.98-4.69,.08-.72-.14-1.32-.66-1.8-.52-.48-1.18-.72-1.98-.72h-10.34c-.88,0-1.54,.1-1.98,.3-.44,.2-1.02,.78-1.74,1.74-.4,.56-1.08,1.28-2.04,2.16-.96,.88-2.21,1.67-3.73,2.35-1.52,.68-3.41,1.02-5.65,1.02-2.73,0-5.07-.72-7.03-2.16-1.97-1.44-3.45-3.35-4.45-5.71-1-2.37-1.54-4.95-1.62-7.76v-.96h39.92c.88,0,1.6-.28,2.17-.84,.56-.56,.84-1.24,.84-2.05v-2.52c0-6.25-1.12-11.76-3.37-16.53-2.24-4.77-5.57-8.5-9.98-11.18Zm-3.01,23.03h-26.58v-.36c0-3.13,.5-5.85,1.5-8.18,1-2.32,2.51-4.17,4.51-5.53,2-1.36,4.41-2.04,7.22-2.04s5.21,.68,7.22,2.04c2,1.36,3.53,3.21,4.57,5.53,1.04,2.33,1.56,5.05,1.56,8.18v.36Z"/><path class="cls-1" d="M308.34,58.24c-3.61-2.21-7.86-3.31-12.75-3.31s-8.84,.86-12.09,2.59c-3.25,1.72-5.91,3.87-8,6.43v-4.93c0-.8-.28-1.48-.84-2.04-.56-.56-1.24-.84-2.05-.84h-9.86c-.8,0-1.48,.28-2.05,.84-.56,.56-.84,1.24-.84,2.04v56.76c0,.8,.28,1.48,.84,2.05s1.24,.84,2.05,.84h10.58c.8,0,1.48-.28,2.04-.84s.84-1.24,.84-2.05v-33.07c0-4.65,1.24-8.3,3.73-10.94,2.48-2.65,5.81-3.97,9.98-3.97s7.64,1.32,9.92,3.97c2.29,2.65,3.43,6.3,3.43,10.94v33.07c0,.8,.28,1.48,.84,2.05,.56,.56,1.24,.84,2.05,.84h10.58c.8,0,1.48-.28,2.04-.84,.56-.56,.84-1.24,.84-2.05v-33.79c0-5.61-.98-10.42-2.95-14.43-1.97-4.01-4.75-7.12-8.36-9.32Z"/><path class="cls-1" d="M372.92,105.44h-8.3c-2.89,0-4.91-.92-6.07-2.77-1.16-1.84-1.74-4.41-1.74-7.7v-26.1h15.03c.8,0,1.48-.28,2.04-.84,.56-.56,.84-1.24,.84-2.04v-6.97c0-.8-.28-1.48-.84-2.04-.56-.56-1.24-.84-2.04-.84h-15.03v-19.96c0-.8-.28-1.48-.84-2.04-.56-.56-1.24-.84-2.05-.84h-9.74c-.88,0-1.58,.28-2.1,.84-.52,.56-.78,1.24-.78,2.04v19.96h-9.5c-.8,0-1.48,.28-2.04,.84-.56,.56-.84,1.24-.84,2.04v6.97c0,.8,.28,1.48,.84,2.04,.56,.56,1.24,.84,2.04,.84h9.5v27.3c0,4.97,.8,9.12,2.4,12.45,1.6,3.33,4.05,5.83,7.34,7.52,3.29,1.68,7.33,2.52,12.15,2.52h9.74c.8,0,1.48-.28,2.05-.84,.56-.56,.84-1.24,.84-2.05v-7.45c0-.8-.28-1.48-.84-2.05-.56-.56-1.24-.84-2.05-.84Z"/><path class="cls-1" d="M399.86,31.36h-10.94c-.88,0-1.58,.28-2.1,.84-.52,.56-.78,1.24-.78,2.04v8.66c0,.88,.26,1.58,.78,2.1,.52,.52,1.22,.78,2.1,.78h10.94c.88,0,1.6-.26,2.16-.78,.56-.52,.84-1.22,.84-2.1v-8.66c0-.8-.28-1.48-.84-2.04-.56-.56-1.28-.84-2.16-.84Z"/><path class="cls-1" d="M399.38,56.13h-9.98c-.8,0-1.48,.28-2.05,.84-.56,.56-.84,1.24-.84,2.04v56.76c0,.8,.28,1.48,.84,2.05s1.24,.84,2.05,.84h9.98c.88,0,1.58-.28,2.1-.84,.52-.56,.78-1.24,.78-2.05V59.02c0-.8-.26-1.48-.78-2.04-.52-.56-1.22-.84-2.1-.84Z"/><path class="cls-1" d="M475.98,82.1c-.32-5.53-1.67-10.32-4.03-14.37-2.37-4.05-5.73-7.19-10.1-9.44-4.37-2.24-9.68-3.37-15.93-3.37s-11.57,1.12-15.93,3.37c-4.37,2.25-7.74,5.39-10.1,9.44-2.37,4.05-3.71,8.84-4.03,14.37-.08,1.44-.12,3.21-.12,5.29s.04,3.85,.12,5.29c.32,5.45,1.62,10.22,3.91,14.31,2.29,4.09,5.61,7.26,9.98,9.5,4.37,2.24,9.76,3.37,16.18,3.37s11.8-1.13,16.17-3.37c4.37-2.24,7.7-5.41,9.98-9.5,2.28-4.09,3.59-8.86,3.91-14.31,.08-1.44,.12-3.21,.12-5.29s-.04-3.85-.12-5.29Zm-16.35,9.98c-.24,5.21-1.52,9.16-3.85,11.85-2.33,2.69-5.61,4.03-9.86,4.03s-7.54-1.34-9.86-4.03c-2.33-2.68-3.61-6.63-3.85-11.85-.08-1.2-.12-2.77-.12-4.69s.04-3.49,.12-4.69c.24-5.13,1.52-9.06,3.85-11.79,2.32-2.72,5.61-4.09,9.86-4.09s7.53,1.37,9.86,4.09c2.32,2.73,3.61,6.66,3.85,11.79,.08,1.2,.12,2.76,.12,4.69s-.04,3.49-.12,4.69Z"/><path class="cls-1" d="M75.77,37.89C75.77,16.96,58.81,0,37.89,0S0,16.96,0,37.89c0,18.04,12.62,33.13,29.5,36.95v41.36c0,.69,.28,1.27,.83,1.75,.55,.48,1.22,.72,2.01,.72h11.1c.86,0,1.55-.24,2.07-.72,.51-.48,.77-1.06,.77-1.75v-41.36c16.89-3.82,29.5-18.9,29.5-36.95Zm-37.89,28.66c-15.8,0-28.66-12.86-28.66-28.66S22.09,9.23,37.89,9.23s28.66,12.86,28.66,28.66-12.86,28.66-28.66,28.66Z"/><path class="cls-1" d="M112.33,58.24c-3.61-2.21-7.86-3.31-12.75-3.31s-8.84,.86-12.09,2.59c-3.25,1.72-5.91,3.61-8,6.17-1.07,1.73-2.25,3.39-3.53,4.98-2.96,3.66-6.44,6.84-10.28,9.49-1.15,.79-1.82,2.1-1.82,3.5v34.06c0,.75,.26,1.49,.77,2.04,.57,.61,1.28,.92,2.12,.92h10.53c.74,0,1.48-.26,2.02-.77,.61-.57,.92-1.28,.92-2.12v-33.07c0-4.65,1.24-8.3,3.73-10.94,2.48-2.65,5.81-3.97,9.98-3.97s7.64,1.32,9.92,3.97c2.29,2.65,3.43,6.3,3.43,10.94v33c0,.75,.26,1.49,.77,2.04,.57,.61,1.28,.92,2.12,.92h10.53c.74,0,1.48-.26,2.02-.77,.61-.57,.92-1.28,.92-2.12v-33.79c0-5.61-.98-10.42-2.95-14.43-1.97-4.01-4.75-7.11-8.36-9.32Z"/></g></g></svg>